<svg width="1200" height="630" viewBox="0 0 1200 630" fill="none" xmlns="http://www.w3.org/2000/svg">
  <!-- Open Graph image for social media sharing -->
  <defs>
    <linearGradient id="ogBg" x1="0%" y1="0%" x2="100%" y2="100%">
      <stop offset="0%" style="stop-color:#60a5fa;stop-opacity:1" />
      <stop offset="50%" style="stop-color:#3b82f6;stop-opacity:1" />
      <stop offset="100%" style="stop-color:#2563eb;stop-opacity:1" />
    </linearGradient>
    <linearGradient id="waveGradient" x1="0%" y1="0%" x2="100%" y2="0%">
      <stop offset="0%" style="stop-color:#ffffff;stop-opacity:0.2" />
      <stop offset="50%" style="stop-color:#ffffff;stop-opacity:0.6" />
      <stop offset="100%" style="stop-color:#ffffff;stop-opacity:0.2" />
    </linearGradient>
  </defs>
  
  <!-- Background -->
  <rect width="1200" height="630" fill="url(#ogBg)"/>
  
  <!-- Decorative sound waves in background -->
  <path d="M 0 315 Q 150 250, 300 315 T 600 315 T 900 315 T 1200 315" 
        stroke="white" 
        stroke-width="2" 
        fill="none" 
        opacity="0.1"/>
  <path d="M 0 300 Q 150 235, 300 300 T 600 300 T 900 300 T 1200 300" 
        stroke="white" 
        stroke-width="2" 
        fill="none" 
        opacity="0.1"/>
  <path d="M 0 330 Q 150 265, 300 330 T 600 330 T 900 330 T 1200 330" 
        stroke="white" 
        stroke-width="2" 
        fill="none" 
        opacity="0.1"/>
  
  <!-- Central icon -->
  <g transform="translate(520, 250)">
    <circle cx="40" cy="40" r="25" fill="white" opacity="0.9"/>
    <circle cx="40" cy="40" r="40" stroke="white" stroke-width="3" fill="none" opacity="0.6"/>
    <circle cx="40" cy="40" r="55" stroke="white" stroke-width="2" fill="none" opacity="0.4"/>
    <circle cx="40" cy="40" r="70" stroke="white" stroke-width="2" fill="none" opacity="0.2"/>
  </g>
  
  <!-- Text content -->
  <text x="600" y="420" font-family="system-ui, -apple-system, sans-serif" font-size="64" font-weight="600" fill="white" text-anchor="middle">
    Samantha
  </text>
  <text x="600" y="480" font-family="system-ui, -apple-system, sans-serif" font-size="32" font-weight="400" fill="white" text-anchor="middle" opacity="0.9">
    She reads the internet, out loud, just for you
  </text>
  <text x="600" y="540" font-family="system-ui, -apple-system, sans-serif" font-size="20" font-weight="400" fill="white" text-anchor="middle" opacity="0.7">
    Free • No Sign-ups • Powered by OpenAI
  </text>
</svg>