<svg xmlns="http://www.w3.org/2000/svg" width="1200" height="630" viewBox="0 0 1200 630">
  <!-- Background -->
  <rect width="1200" height="630" fill="#3B82F6" />
  
  <!-- Diagonal wave pattern for background -->
  <path d="M-100,730 C250,650 350,580 650,550 C950,520 1050,450 1300,370" 
        stroke="rgba(255,255,255,0.1)" stroke-width="60" fill="none" />
  <path d="M-100,830 C250,750 350,680 650,650 C950,620 1050,550 1300,470" 
        stroke="rgba(255,255,255,0.1)" stroke-width="60" fill="none" />
  <path d="M-100,930 C250,850 350,780 650,750 C950,720 1050,650 1300,570" 
        stroke="rgba(255,255,255,0.1)" stroke-width="60" fill="none" />
  
  <!-- Logo -->
  <g transform="translate(120, 215) scale(0.8)">
    <rect width="250" height="250" fill="#3B82F6" rx="62" ry="62" stroke="white" stroke-width="8" />
    <path d="M170 90c0-22-22-35-45-35-25 0-42 10-47 30l30 7c2-7 7-12 17-12 7 0 15 5 15 12 0 20-70 7-70 57 0 22 20 37 45 37 22 0 40-10 45-27l-30-7c-2 7-7 12-15 12-7 0-15-2-15-12 0-17 70-7 70-55z" fill="white" />
    <path d="M45 128 H73" stroke="white" stroke-width="6" stroke-linecap="round" />
    <path d="M32 128 H40" stroke="white" stroke-width="4" stroke-linecap="round" />
    <path d="M184 128 H212" stroke="white" stroke-width="6" stroke-linecap="round" />
    <path d="M217 128 H225" stroke="white" stroke-width="4" stroke-linecap="round" />
  </g>
  
  <!-- Text Content -->
  <text x="440" y="235" font-family="Arial, sans-serif" font-weight="bold" font-size="80" fill="white">Samantha</text>
  <text x="440" y="315" font-family="Arial, sans-serif" font-weight="normal" font-size="38" fill="white">She reads the internet, out loud, just for you.</text>
  
  <!-- Feature bullets -->
  <g transform="translate(440, 380)">
    <circle cx="12" cy="12" r="6" fill="white" />
    <text x="35" y="20" font-family="Arial, sans-serif" font-size="28" fill="white">Natural, expressive voice</text>
  </g>
  
  <g transform="translate(440, 430)">
    <circle cx="12" cy="12" r="6" fill="white" />
    <text x="35" y="20" font-family="Arial, sans-serif" font-size="28" fill="white">Read articles while commuting or exercising</text>
  </g>
  
  <g transform="translate(440, 480)">
    <circle cx="12" cy="12" r="6" fill="white" />
    <text x="35" y="20" font-family="Arial, sans-serif" font-size="28" fill="white">Transform your reading list into a podcast</text>
  </g>
</svg> 