<svg width="32" height="32" viewBox="0 0 32 32" fill="none" xmlns="http://www.w3.org/2000/svg">
  <!-- Samantha's voice icon: sound waves emanating from a warm center -->
  <defs>
    <linearGradient id="warmGradient" x1="0%" y1="0%" x2="100%" y2="100%">
      <stop offset="0%" style="stop-color:#60a5fa;stop-opacity:1" />
      <stop offset="100%" style="stop-color:#3b82f6;stop-opacity:1" />
    </linearGradient>
  </defs>
  
  <!-- Center circle - represents Samantha's presence -->
  <circle cx="16" cy="16" r="4" fill="url(#warmGradient)"/>
  
  <!-- Inner sound wave -->
  <path d="M 10 16 Q 10 12, 16 12 Q 22 12, 22 16 Q 22 20, 16 20 Q 10 20, 10 16" 
        stroke="#3b82f6" 
        stroke-width="1.5" 
        fill="none" 
        stroke-linecap="round"
        opacity="0.8"/>
  
  <!-- Middle sound wave -->
  <path d="M 7 16 Q 7 9, 16 9 Q 25 9, 25 16 Q 25 23, 16 23 Q 7 23, 7 16" 
        stroke="#60a5fa" 
        stroke-width="1.5" 
        fill="none" 
        stroke-linecap="round"
        opacity="0.6"/>
  
  <!-- Outer sound wave -->
  <path d="M 4 16 Q 4 6, 16 6 Q 28 6, 28 16 Q 28 26, 16 26 Q 4 26, 4 16" 
        stroke="#93c5fd" 
        stroke-width="1.5" 
        fill="none" 
        stroke-linecap="round"
        opacity="0.4"/>
</svg>
